<?xml version="1.0" standalone="no"?>
<!DOCTYPE svg PUBLIC "-//W3C//DTD SVG 20010904//EN"
 "http://www.w3.org/TR/2001/REC-SVG-20010904/DTD/svg10.dtd">
<svg version="1.0" xmlns="http://www.w3.org/2000/svg"
 width="526.000000pt" height="474.000000pt" viewBox="0 0 526.000000 474.000000"
 preserveAspectRatio="xMidYMid meet">

<g transform="translate(0.000000,474.000000) scale(0.100000,-0.100000)"
fill="#000000" stroke="none">
<path d="M2522 4479 c-54 -10 -104 -41 -121 -72 -11 -21 -23 -26 -85 -31 -164
-16 -295 -66 -402 -154 -34 -27 -103 -71 -154 -97 -105 -55 -139 -92 -165
-183 -9 -30 -45 -112 -80 -181 -93 -186 -96 -200 -106 -466 -4 -126 -14 -342
-21 -480 -26 -531 -11 -631 122 -791 68 -82 89 -171 115 -489 31 -377 45 -416
236 -671 117 -154 311 -330 435 -392 116 -59 195 -76 344 -76 111 -1 149 4
215 22 135 39 246 110 412 265 75 70 284 345 314 412 32 71 57 191 69 330 24
269 40 402 56 455 21 71 56 140 84 165 87 78 138 299 120 515 -5 52 -5 125 -1
162 4 37 3 132 -1 210 -4 79 -12 247 -17 373 -6 153 -15 246 -24 276 -9 26
-44 107 -80 180 -36 74 -70 152 -77 174 -35 111 -72 153 -238 264 -64 43 -124
86 -131 95 -44 52 -181 86 -353 86 -55 0 -74 5 -104 25 -80 54 -268 93 -362
74z m-312 -436 c40 -19 92 -57 135 -97 40 -37 98 -80 135 -99 60 -30 72 -32
165 -32 90 0 106 3 158 29 33 15 94 61 138 103 112 104 164 127 294 127 90 1
106 -2 156 -27 116 -57 264 -248 322 -415 25 -73 31 -110 38 -232 8 -164 21
-252 86 -600 43 -233 45 -251 40 -375 -7 -177 -36 -268 -117 -365 -86 -104
-104 -178 -135 -543 -19 -228 -40 -340 -80 -418 -51 -98 -225 -319 -327 -414
-212 -197 -345 -256 -573 -256 -173 0 -280 30 -405 114 -58 39 -171 136 -234
201 -60 63 -236 296 -264 351 -45 89 -64 193 -87 480 -25 292 -51 391 -129
484 -72 86 -104 174 -115 316 -11 132 -2 217 47 475 49 260 70 409 77 555 2
61 12 137 20 170 47 182 201 402 327 466 68 35 87 39 178 36 71 -2 96 -8 150
-34z"/>
<path d="M1861 3538 c-18 -5 -54 -31 -80 -57 -99 -101 -152 -252 -150 -425 l1
-101 12 55 c16 73 34 126 59 175 32 65 102 149 141 170 34 18 37 18 72 2 85
-41 259 -195 370 -328 70 -84 121 -117 154 -99 27 14 26 61 -2 118 -31 63
-423 456 -481 482 -47 22 -49 22 -96 8z"/>
<path d="M3376 3535 c-28 -10 -97 -73 -262 -238 -196 -198 -224 -231 -237
-273 -17 -58 -12 -90 16 -98 35 -9 74 21 166 127 136 156 333 317 388 317 17
0 43 -18 82 -57 69 -70 126 -178 145 -278 l13 -70 8 48 c21 132 -40 339 -132
446 -67 79 -120 100 -187 76z"/>
<path d="M1879 2825 c-65 -24 -102 -47 -155 -97 -58 -55 -59 -60 -15 -146 52
-102 144 -167 248 -178 137 -14 355 56 433 140 23 25 23 28 8 54 -23 39 -153
147 -222 183 -105 57 -218 73 -297 44z"/>
<path d="M3234 2820 c-33 -11 -87 -37 -121 -59 -61 -40 -203 -166 -203 -182 0
-17 72 -80 120 -104 138 -70 339 -91 435 -45 27 13 67 42 88 63 38 38 97 146
97 179 0 23 -92 103 -156 134 -75 37 -175 42 -260 14z"/>
<path d="M2462 2358 c-1 -10 -7 -86 -13 -170 -21 -314 -49 -419 -143 -559 -70
-105 -89 -154 -76 -199 8 -28 7 -29 -43 -41 -29 -6 -93 -14 -144 -16 -80 -5
-98 -3 -138 17 -83 40 -88 76 -50 340 21 147 25 396 6 470 -19 76 -33 97 -24
35 14 -100 7 -266 -15 -340 -36 -122 -46 -187 -46 -305 -1 -187 43 -284 153
-344 73 -39 155 -44 303 -20 157 26 674 27 818 1 52 -9 123 -17 157 -17 128 0
230 66 274 176 21 53 24 75 23 209 0 134 -3 160 -28 250 -33 116 -45 284 -27
379 14 76 7 83 -15 14 -35 -110 -30 -347 12 -627 18 -117 12 -162 -28 -198
-60 -54 -163 -57 -368 -12 -45 10 -45 10 -42 49 5 47 -28 119 -73 159 -45 40
-56 57 -76 114 -17 49 -18 50 -12 12 8 -59 26 -95 68 -140 42 -45 74 -107 75
-145 0 -14 -13 -41 -29 -60 l-29 -35 -24 23 c-34 31 -65 28 -143 -13 -68 -36
-158 -54 -208 -41 -14 3 -47 24 -72 46 -60 52 -96 70 -139 70 -44 0 -66 -9
-66 -26 0 -26 -18 -14 -25 17 -9 38 7 77 60 154 104 148 130 240 146 515 6
107 9 213 7 235 -3 22 -5 32 -6 23z"/>
<path d="M2544 1111 c-109 -18 -244 -81 -294 -138 -40 -45 -38 -62 3 -27 47
39 140 81 225 100 55 12 105 15 205 12 158 -6 235 -27 332 -92 76 -51 88 -38
20 22 -51 44 -124 83 -202 106 -65 18 -220 27 -289 17z"/>
</g>
</svg>
